<svg  viewBox="0 0 34 39" fill="none" xmlns="http://www.w3.org/2000/svg">
<path d="M30.414 13.2525C30.414 15.7017 31.078 17.1467 32.54 18.8101C33.646 20.0347 34 21.6084 34 23.3146C34 25.019 33.426 26.6375 32.274 27.9518C30.7522 29.5321 28.6883 30.5126 26.4741 30.7072C23.3321 30.9685 20.1881 31.1889 17.0021 31.1889C13.8122 31.1889 10.6702 31.0563 7.52822 30.7072C5.31374 30.5135 3.24955 29.5328 1.72827 27.9518C0.598355 26.6594 -0.0152266 25.0128 0.000287143 23.3146C0.000287143 21.6084 0.356284 20.0347 1.46027 18.8101C2.96826 17.1447 3.58826 15.7017 3.58826 13.2525V12.4217C3.58826 9.14177 4.42825 6.99868 6.15423 4.89849C8.72221 1.83694 12.8382 0 16.9121 0H17.0921C21.2521 0 25.5001 1.92469 28.024 5.11885C29.664 7.17419 30.414 9.22953 30.414 12.4217V13.2525ZM11.1482 35.2196C11.1482 34.2368 12.0722 33.7883 12.9282 33.5952C13.9282 33.3885 20.0181 33.3885 21.0181 33.5952C21.8741 33.7883 22.7981 34.2388 22.7981 35.2196C22.7481 36.1556 22.1861 36.9825 21.4081 37.509C20.4125 38.2662 19.2317 38.7574 17.9821 38.9344C17.3131 39.0219 16.6352 39.0219 15.9662 38.9344C14.7153 38.7587 13.5334 38.2666 12.5382 37.507C11.7582 36.9825 11.1982 36.1537 11.1482 35.2196Z" fill="#F3F3F3"/>
</svg>
