<svg viewBox="0 0 12 20" fill="none" xmlns="http://www.w3.org/2000/svg">
<path fill-rule="evenodd" clip-rule="evenodd" d="M0.439472 0.380864C0.69837 0.136985 1.04932 0 1.41522 0C1.78113 0 2.13208 0.136985 2.39098 0.380864L11.5962 9.06289C11.8548 9.30707 12 9.63807 12 9.98318C12 10.3283 11.8548 10.6593 11.5962 10.9035L2.39098 19.5855C2.26457 19.7135 2.11213 19.8161 1.94275 19.8873C1.77338 19.9584 1.59054 19.9967 1.40514 19.9998C1.21974 20.0029 1.03558 19.9707 0.863652 19.9052C0.691721 19.8397 0.535538 19.7422 0.404422 19.6186C0.273305 19.4949 0.169941 19.3476 0.100495 19.1854C0.0310488 19.0233 -0.00305625 18.8496 0.000214886 18.6747C0.00348602 18.4999 0.0440666 18.3274 0.119534 18.1677C0.195002 18.0079 0.303812 17.8641 0.439472 17.7449L8.66893 9.98318L0.439472 2.22145C0.180897 1.97727 0.0356577 1.64627 0.0356577 1.30116C0.0356577 0.956046 0.180897 0.625046 0.439472 0.380864Z" fill="#333333"/>
</svg>
