<svg viewBox="0 0 18 14" fill="none" xmlns="http://www.w3.org/2000/svg">
<path d="M3.39303 6.92493L4.59765 11.1285C5.27022 12.4616 6.11453 12.8099 8.2127 12.93C9.88091 12.8892 10.8489 12.6922 11.6752 11.974C12.2385 11.484 12.4931 10.7454 12.6168 10.0103L13.03 7.52544M16.0421 5.12341V11.1285M1.08108 4.44243C2.98709 2.8607 4.68532 2.01158 8.2079 1.07719C8.6053 0.972271 9.02338 0.974343 9.41972 1.0832C12.5376 1.94072 14.2214 2.70216 16.4769 4.39559C16.573 4.46765 16.6018 4.60217 16.5345 4.70185C15.7983 5.78517 14.1541 6.66311 10.1211 8.22683C9.28109 8.55006 8.35012 8.54491 7.51371 8.21242C3.21889 6.50698 1.24442 5.59421 1.00422 4.64661C0.996409 4.60879 0.999487 4.56953 1.01309 4.53339C1.0267 4.49725 1.05027 4.46571 1.08108 4.44243Z" stroke="#624C40" stroke-opacity="0.67" stroke-width="1.5" stroke-linecap="round" stroke-linejoin="round"/>
</svg>
