<svg viewBox="0 0 16 20" fill="none" xmlns="http://www.w3.org/2000/svg">
<path d="M15.42 5.29004L10.45 0.430042C10.3122 0.292377 10.1484 0.183471 9.96816 0.109652C9.7879 0.0358341 9.59478 -0.00142449 9.4 4.1646e-05H2.5C1.83696 4.1646e-05 1.20107 0.263434 0.732233 0.732275C0.263392 1.20112 0 1.837 0 2.50004V17.38C0.00184718 18.0425 0.265832 18.6773 0.734273 19.1458C1.20271 19.6142 1.83753 19.8782 2.5 19.88H13.37C14.0325 19.8782 14.6673 19.6142 15.1357 19.1458C15.6042 18.6773 15.8682 18.0425 15.87 17.38V6.36004C15.8698 6.16074 15.83 5.96347 15.7527 5.77975C15.6754 5.59603 15.5623 5.42955 15.42 5.29004ZM14.15 5.44004H11.81C11.4122 5.44004 11.0306 5.28201 10.7493 5.0007C10.468 4.7194 10.31 4.33787 10.31 3.94004V1.69004L14.15 5.44004ZM14.87 17.38C14.87 17.7779 14.712 18.1594 14.4307 18.4407C14.1494 18.722 13.7678 18.88 13.37 18.88H2.5C2.10218 18.88 1.72064 18.722 1.43934 18.4407C1.15804 18.1594 1 17.7779 1 17.38V2.50004C1 2.10222 1.15804 1.72069 1.43934 1.43938C1.72064 1.15808 2.10218 1.00004 2.5 1.00004H9.31V3.94004C9.31 4.60308 9.57339 5.23897 10.0422 5.70781C10.5111 6.17665 11.147 6.44004 11.81 6.44004H14.87V17.38Z" fill="#CAC8C8"/>
</svg>
