<svg  viewBox="0 0 36 34" fill="none" xmlns="http://www.w3.org/2000/svg">
<path d="M17.9998 0.416748C15.7564 0.416748 13.535 0.858622 11.4623 1.71714C9.38968 2.57566 7.50643 3.83401 5.9201 5.42034C2.71635 8.62409 0.916504 12.9693 0.916504 17.5001C0.916504 25.0509 5.81942 31.4572 12.6015 33.7293C13.4557 33.8659 13.729 33.3363 13.729 32.8751V29.988C8.99692 31.013 7.98901 27.6988 7.98901 27.6988C7.20317 25.7172 6.09276 25.1876 6.09276 25.1876C4.53817 24.1284 6.21234 24.1626 6.21234 24.1626C7.92067 24.2822 8.82609 25.9222 8.82609 25.9222C10.3123 28.5188 12.8236 27.7501 13.7973 27.3401C13.9511 26.2297 14.3953 25.478 14.8736 25.0509C11.0811 24.6238 7.10067 23.1547 7.10067 16.6459C7.10067 14.7497 7.74984 13.2293 8.86026 12.0163C8.68942 11.5892 8.09151 9.81258 9.03109 7.50633C9.03109 7.50633 10.4661 7.04508 13.729 9.24883C15.0786 8.873 16.5478 8.68508 17.9998 8.68508C19.4519 8.68508 20.9211 8.873 22.2707 9.24883C25.5336 7.04508 26.9686 7.50633 26.9686 7.50633C27.9082 9.81258 27.3103 11.5892 27.1394 12.0163C28.2498 13.2293 28.899 14.7497 28.899 16.6459C28.899 23.1718 24.9015 24.6068 21.0919 25.0338C21.7069 25.5634 22.2707 26.6055 22.2707 28.1943V32.8751C22.2707 33.3363 22.544 33.883 23.4153 33.7293C30.1973 31.4401 35.0832 25.0509 35.0832 17.5001C35.0832 15.2567 34.6413 13.0352 33.7828 10.9626C32.9243 8.88993 31.6659 7.00668 30.0796 5.42034C28.4933 3.83401 26.61 2.57566 24.5374 1.71714C22.4647 0.858622 20.2433 0.416748 17.9998 0.416748Z" fill="black"/>
</svg>
