<svg viewBox="0 0 35 36" fill="none" xmlns="http://www.w3.org/2000/svg">
<path d="M34.3969 14.5918H33.0208V14.5209H17.6458V21.3543H27.3005C25.892 25.3321 22.1072 28.1876 17.6458 28.1876C11.9853 28.1876 7.39583 23.5981 7.39583 17.9376C7.39583 12.277 11.9853 7.68758 17.6458 7.68758C20.2587 7.68758 22.6359 8.67329 24.4459 10.2834L29.2779 5.45137C26.2268 2.60785 22.1456 0.854248 17.6458 0.854248C8.21156 0.854248 0.5625 8.50331 0.5625 17.9376C0.5625 27.3719 8.21156 35.0209 17.6458 35.0209C27.0801 35.0209 34.7292 27.3719 34.7292 17.9376C34.7292 16.7921 34.6113 15.674 34.3969 14.5918Z" fill="#FFC107"/>
<path d="M2.53223 9.98614L8.14495 14.1024C9.66366 10.3423 13.3417 7.68758 17.6458 7.68758C20.2587 7.68758 22.6359 8.67329 24.4459 10.2834L29.2779 5.45137C26.2268 2.60785 22.1456 0.854248 17.6458 0.854248C11.0841 0.854248 5.39368 4.55877 2.53223 9.98614Z" fill="#FF3D00"/>
<path d="M17.6455 35.0209C22.0581 35.0209 26.0675 33.3322 29.099 30.5861L23.8117 26.112C22.0389 27.4602 19.8727 28.1894 17.6455 28.1876C13.2021 28.1876 9.42922 25.3543 8.00789 21.4004L2.43701 25.6926C5.2643 31.225 11.006 35.0209 17.6455 35.0209Z" fill="#4CAF50"/>
<path d="M34.3971 14.5919H33.021V14.521H17.646V21.3543H27.3006C26.6269 23.2475 25.4132 24.9018 23.8097 26.1129L23.8122 26.1112L29.0995 30.5853C28.7254 30.9253 34.7293 26.4793 34.7293 17.9377C34.7293 16.7922 34.6115 15.6741 34.3971 14.5919Z" fill="#1976D2"/>
</svg>
