<svg viewBox="0 0 40 41" fill="none" xmlns="http://www.w3.org/2000/svg">
<path d="M36.6562 0.960841H3.34375C2.58791 0.953149 1.85989 1.24561 1.31944 1.77406C0.778979 2.30251 0.47023 3.02377 0.460938 3.77959V37.2266C0.471911 37.9813 0.781398 38.7009 1.32167 39.228C1.86195 39.7551 2.58901 40.0467 3.34375 40.039H36.6562C37.4121 40.045 38.1397 39.7515 38.6798 39.2227C39.22 38.6939 39.5289 37.9728 39.5391 37.217V3.76998C39.5256 3.01638 39.2152 2.29855 38.6754 1.77253C38.1356 1.24651 37.4099 0.954813 36.6562 0.960841Z" fill="#0076B2"/>
<path d="M6.24592 15.6089H12.0468V34.2735H6.24592V15.6089ZM9.14795 6.31982C9.81328 6.31982 10.4637 6.51716 11.0168 6.88686C11.57 7.25657 12.0011 7.78203 12.2555 8.39677C12.51 9.01152 12.5764 9.68793 12.4464 10.3404C12.3163 10.9929 11.9957 11.5922 11.525 12.0624C11.0543 12.5327 10.4548 12.8527 9.80213 12.9822C9.1495 13.1116 8.47316 13.0445 7.85866 12.7895C7.24415 12.5344 6.7191 12.1028 6.34993 11.5493C5.98075 10.9958 5.78404 10.3452 5.78467 9.6799C5.78552 8.78846 6.14024 7.93382 6.77088 7.30377C7.40153 6.67373 8.25651 6.31982 9.14795 6.31982ZM15.6855 15.6089H21.2462V18.1714H21.323C22.0982 16.7044 23.988 15.1572 26.81 15.1572C32.6845 15.1444 33.7736 19.0106 33.7736 24.0235V34.2735H27.9727V25.1926C27.9727 23.0305 27.9343 20.247 24.9586 20.247C21.9829 20.247 21.4768 22.6045 21.4768 25.0517V34.2735H15.6855V15.6089Z" fill="white"/>
</svg>
