<svg viewBox="0 0 16 11" fill="none" xmlns="http://www.w3.org/2000/svg">
<path d="M6.5818 5.20373L4.46641 3.08835C4.29718 2.91912 4.04334 2.91912 3.87411 3.08835C3.70487 3.25758 3.70487 3.51143 3.87411 3.68066L5.27026 5.07681H1.20872C0.954875 5.07681 0.785645 5.24604 0.785645 5.49989C0.785645 5.75373 0.954875 5.92296 1.20872 5.92296H5.27026L3.87411 7.31912C3.70487 7.48835 3.70487 7.7422 3.87411 7.91143C3.95872 7.99604 4.04334 8.03835 4.17026 8.03835C4.29718 8.03835 4.3818 7.99604 4.46641 7.91143L6.5818 5.75373C6.5818 5.75373 6.5818 5.71143 6.62411 5.71143C6.75103 5.5845 6.75103 5.33066 6.5818 5.20373Z" fill="#F3F3F3"/>
<path d="M6.69231 8.46154C6.94615 8.46154 7.11538 8.63077 7.11538 8.88462V9.73077C7.11538 9.98462 7.28462 10.1538 7.53846 10.1538H14.7308C14.9846 10.1538 15.1538 9.98462 15.1538 9.73077V1.26923C15.1538 1.01538 14.9846 0.846154 14.7308 0.846154H7.53846C7.28462 0.846154 7.11538 1.01538 7.11538 1.26923V2.11538C7.11538 2.36923 6.94615 2.53846 6.69231 2.53846C6.43846 2.53846 6.26923 2.36923 6.26923 2.11538V1.26923C6.26923 0.55 6.81923 0 7.53846 0H14.7308C15.45 0 16 0.55 16 1.26923V9.73077C16 10.45 15.45 11 14.7308 11H7.53846C6.81923 11 6.26923 10.45 6.26923 9.73077V8.88462C6.26923 8.63077 6.43846 8.46154 6.69231 8.46154Z" fill="#F3F3F3"/>
</svg>
