<svg viewBox="0 0 16 11" fill="none" xmlns="http://www.w3.org/2000/svg">
<path d="M15.8674 5.20373L13.7521 3.08835C13.5828 2.91912 13.329 2.91912 13.1598 3.08835C12.9905 3.25758 12.9905 3.51143 13.1598 3.68066L14.5559 5.07681H10.4944C10.2405 5.07681 10.0713 5.24604 10.0713 5.49989C10.0713 5.75373 10.2405 5.92296 10.4944 5.92296H14.5559L13.1598 7.31912C12.9905 7.48835 12.9905 7.7422 13.1598 7.91143C13.2444 7.99604 13.329 8.03835 13.4559 8.03835C13.5828 8.03835 13.6674 7.99604 13.7521 7.91143L15.8674 5.75373C15.8674 5.75373 15.8674 5.71143 15.9097 5.71143C16.0367 5.5845 16.0367 5.33066 15.8674 5.20373Z" fill="#F3F3F3"/>
<path d="M9.86092 8.46154C9.60707 8.46154 9.43784 8.63077 9.43784 8.88462V9.73077C9.43784 9.98462 9.26861 10.1538 9.01476 10.1538H1.82245C1.56861 10.1538 1.39938 9.98462 1.39938 9.73077V1.26923C1.39938 1.01538 1.56861 0.846154 1.82245 0.846154H9.01476C9.26861 0.846154 9.43784 1.01538 9.43784 1.26923V2.11538C9.43784 2.36923 9.60707 2.53846 9.86092 2.53846C10.1148 2.53846 10.284 2.36923 10.284 2.11538V1.26923C10.284 0.55 9.73399 0 9.01476 0H1.82245C1.10322 0 0.553223 0.55 0.553223 1.26923V9.73077C0.553223 10.45 1.10322 11 1.82245 11H9.01476C9.73399 11 10.284 10.45 10.284 9.73077V8.88462C10.284 8.63077 10.1148 8.46154 9.86092 8.46154Z" fill="#F3F3F3"/>
</svg>
