<svg  viewBox="0 0 62 41" fill="none" xmlns="http://www.w3.org/2000/svg">
<g clip-path="url(#clip0_76_872)">
<path d="M6.64272 26.8864C6.64272 29.2301 7.15826 31.0296 7.83188 32.1181C8.71522 33.544 10.0324 34.148 11.3756 34.148C13.1079 34.148 14.6927 33.7188 17.7466 29.5032C20.1934 26.1244 23.0764 21.3814 25.0161 18.408L28.3013 13.3706C30.5833 9.87213 33.2244 5.98312 36.253 3.3469C38.7248 1.19523 41.3919 0 44.0758 0C48.5821 0 52.8744 2.60626 56.1596 7.49437C59.7547 12.8476 61.5 19.5906 61.5 26.5491C61.5 30.6857 60.6832 33.7253 59.293 36.1268C57.9498 38.4491 55.332 40.7694 50.9285 40.7694V34.148C54.699 34.148 55.64 30.6901 55.64 26.7327C55.64 21.0934 54.3225 14.8348 51.4205 10.3632C49.3607 7.19107 46.6917 5.25304 43.7553 5.25304C40.5794 5.25304 38.0236 7.6435 35.1513 11.9065C33.6244 14.1711 32.0566 16.9311 30.2967 20.0452L28.3589 23.4712C24.4664 30.3592 23.4805 31.928 21.5344 34.5172C18.123 39.0512 15.2104 40.7694 11.3756 40.7694C6.82674 40.7694 3.94993 38.8033 2.1686 35.8407C0.714217 33.4265 0 30.259 0 26.6495L6.64272 26.8864Z" fill="#0081FB"/>
<path d="M5.23779 7.96167C8.28348 3.27664 12.6783 0 17.7192 0C20.6387 0 23.5408 0.862439 26.5713 3.33203C29.8861 6.03204 33.4192 10.4783 37.827 17.8062L39.4078 20.4357C43.2229 26.7797 45.3937 30.0432 46.6641 31.5825C48.2981 33.5589 49.4424 34.148 50.9287 34.148C54.6992 34.148 55.6402 30.6901 55.6402 26.7327L61.5002 26.5491C61.5002 30.6857 60.6834 33.7253 59.2932 36.1268C57.95 38.4491 55.3322 40.7694 50.9287 40.7694C48.1912 40.7694 45.7661 40.1759 43.0841 37.6507C41.0224 35.7127 38.6121 32.2696 36.7577 29.1745L31.242 19.979C28.4747 15.3642 25.9359 11.9236 24.4669 10.3651C22.8866 8.6896 20.8547 6.66598 17.6125 6.66598C14.9884 6.66598 12.7598 8.50403 10.8948 11.315L5.23779 7.96167Z" fill="url(#paint0_linear_76_872)"/>
<path d="M17.6121 6.66598C14.988 6.66598 12.7593 8.50402 10.8944 11.315C8.25758 15.2875 6.64272 21.2042 6.64272 26.8864C6.64272 29.2301 7.15826 31.0296 7.83188 32.1181L2.1686 35.8407C0.714217 33.4265 0 30.259 0 26.6495C0 20.0857 1.80512 13.2447 5.23759 7.96167C8.28328 3.27664 12.6781 0 17.719 0L17.6121 6.66598Z" fill="url(#paint1_linear_76_872)"/>
</g>
<defs>
<linearGradient id="paint0_linear_76_872" x1="786.048" y1="2280.39" x2="5015.56" y2="2494.43" gradientUnits="userSpaceOnUse">
<stop stop-color="#0064E1"/>
<stop offset="0.4" stop-color="#0064E1"/>
<stop offset="0.83" stop-color="#0073EE"/>
<stop offset="1" stop-color="#0082FB"/>
</linearGradient>
<linearGradient id="paint1_linear_76_872" x1="962.406" y1="2966.97" x2="962.406" y2="1408.79" gradientUnits="userSpaceOnUse">
<stop stop-color="#0082FB"/>
<stop offset="1" stop-color="#0064E0"/>
</linearGradient>
<clipPath id="clip0_76_872">
<rect width="61.5" height="41" fill="white"/>
</clipPath>
</defs>
</svg>
