<svg viewBox="0 0 30 30" fill="none" xmlns="http://www.w3.org/2000/svg">
<path fill-rule="evenodd" clip-rule="evenodd" d="M13.4259 0.945566C13.5863 0.657859 13.8162 0.419142 14.0925 0.253227C14.3688 0.0873122 14.6819 0 15.0005 0C15.3192 0 15.6323 0.0873122 15.9086 0.253227C16.1849 0.419142 16.4148 0.657859 16.5752 0.945566L20.6504 8.25553L28.5645 10.0472C28.8758 10.1179 29.1639 10.2726 29.4002 10.496C29.6364 10.7193 29.8125 11.0034 29.9109 11.32C30.0093 11.6366 30.0265 11.9747 29.9609 12.3004C29.8953 12.6262 29.7492 12.9283 29.537 13.1766L24.1423 19.4856L24.9588 27.9032C24.991 28.2346 24.9395 28.5691 24.8093 28.8732C24.6791 29.1774 24.4748 29.4405 24.2169 29.6363C23.9589 29.8321 23.6563 29.9538 23.3393 29.9892C23.0223 30.0246 22.7019 29.9725 22.4102 29.8381L15.0005 26.4253L7.5909 29.8381C7.29918 29.9725 6.97881 30.0246 6.66178 29.9892C6.34476 29.9538 6.04217 29.8321 5.78423 29.6363C5.52629 29.4405 5.32202 29.1774 5.19183 28.8732C5.06164 28.5691 5.01007 28.2346 5.04229 27.9032L5.85877 19.4856L0.464109 13.1781C0.251571 12.9298 0.10508 12.6276 0.0392629 12.3016C-0.0265545 11.9757 -0.00939614 11.6374 0.0890248 11.3205C0.187446 11.0037 0.363686 10.7193 0.600151 10.4959C0.836616 10.2725 1.12503 10.1178 1.43661 10.0472L9.35073 8.25553L13.4259 0.945566ZM15.0005 4.17396L11.6282 10.2255C11.5006 10.4539 11.329 10.6521 11.1242 10.8073C10.9193 10.9626 10.6858 11.0716 10.4384 11.1274L3.88899 12.6098L8.35344 17.831C8.69462 18.2302 8.85937 18.7604 8.80834 19.2921L8.13328 26.2593L14.2657 23.4346C14.4973 23.328 14.7475 23.2729 15.0005 23.2729C15.2536 23.2729 15.5038 23.328 15.7354 23.4346L21.8678 26.2593L21.1927 19.2921C21.1671 19.029 21.1942 18.7632 21.2723 18.5117C21.3503 18.2601 21.4777 18.0283 21.6462 17.831L26.1121 12.6098L19.5627 11.1274C19.3153 11.0716 19.0818 10.9626 18.8769 10.8073C18.6721 10.6521 18.5005 10.4539 18.3729 10.2255L15.0005 4.17396Z" fill="#333333"/>
</svg>
